<svg xmlns="http://www.w3.org/2000/svg" width="20" height="20" viewBox="0 0 20 20" fill="none">
  <path d="M845 850H155Q113 850 77.5 829.0Q42 808 21.0 772.5Q0 737 0 695V338Q0 323 10.5 312.5Q21 302 36 302H238V5Q238 -37 259.0 -72.5Q280 -108 315.5 -129.0Q351 -150 393 -150H845Q887 -150 922.5 -129.0Q958 -108 979.0 -72.5Q1000 -37 1000 5V695Q1000 737 979.0 772.5Q958 808 922.5 829.0Q887 850 845 850ZM71 374V695Q71 730 95.5 754.5Q120 779 154.5 779.0Q189 779 213.5 754.5Q238 730 238 695V374ZM929 5Q929 -30 904.5 -54.5Q880 -79 845 -79H393Q358 -79 334.0 -54.5Q310 -30 310 5V695Q310 709 307 723V731Q304 741 300 751V757Q294 769 286 779H845Q880 779 904.5 754.5Q929 730 929 695ZM833 588Q833 573 823.0 562.5Q813 552 798 552H441Q426 552 415.5 562.5Q405 573 405.0 588.0Q405 603 415.5 613.5Q426 624 441 624H798Q813 624 823.0 613.5Q833 603 833 588ZM833 386Q833 371 823.0 360.5Q813 350 798 350H441Q428 352 419.5 362.0Q411 372 411.0 385.5Q411 399 419.5 409.0Q428 419 441 421H798Q812 421 822.5 410.5Q833 400 833 386ZM833 76Q833 58 823.0 42.5Q813 27 796.0 20.5Q779 14 761.0 17.5Q743 21 730.0 34.0Q717 47 714.0 65.0Q711 83 718.0 99.5Q725 116 740.5 126.0Q756 136 774 136Q799 136 816.0 118.5Q833 101 833 76Z" fill="currentColor" transform="translate(1.600,15.880) scale(0.01680,-0.01680)"/>
</svg>
